HIERARCHY
ROOT Hips
{
  OFFSET -43.3411 73.6987 0
  CHANNELS 6 Xposition Yposition Zposition Zrotation Xrotation Yrotation
  JOINT Bip01_Pelvis
  {
    OFFSET 0 0 0
    CHANNELS 6 Xposition Yposition Zposition Zrotation Xrotation Yrotation
    JOINT BN_Tail_01
    {
      OFFSET -18.6385 -9.591 -2.032e-005
      CHANNELS 6 Xposition Yposition Zposition Zrotation Xrotation Yrotation
      JOINT BN_Tail_02
      {
        OFFSET 20.9743 0 0
        CHANNELS 6 Xposition Yposition Zposition Zrotation Xrotation Yrotation
        JOINT BN_Tail_03
        {
          OFFSET 20.3015 0 0
          CHANNELS 6 Xposition Yposition Zposition Zrotation Xrotation Yrotation
          JOINT BN_Tail_04
          {
            OFFSET 21.6394 -9.91821e-005 0
            CHANNELS 6 Xposition Yposition Zposition Zrotation Xrotation Yrotation
            End Site
            {
              OFFSET 0 0 0
            }
          }
        }
      }
    }
    JOINT Bip01_Spine
    {
      OFFSET 22.1878 -0.659386 3.048e-005
      CHANNELS 6 Xposition Yposition Zposition Zrotation Xrotation Yrotation
      JOINT Bip01_R_Thigh
      {
        OFFSET -22.1873 0.677109 -17.1024
        CHANNELS 6 Xposition Yposition Zposition Zrotation Xrotation Yrotation
        JOINT Bip01_R_Calf
        {
          OFFSET 34.2647 0 0
          CHANNELS 6 Xposition Yposition Zposition Zrotation Xrotation Yrotation
          JOINT Bip01_R_HorseLink
          {
            OFFSET 20.4429 0 0
            CHANNELS 6 Xposition Yposition Zposition Zrotation Xrotation Yrotation
            JOINT Bip01_R_Foot
            {
              OFFSET 16.5673 0 0
              CHANNELS 6 Xposition Yposition Zposition Zrotation Xrotation Yrotation
              JOINT Bip01_R_Toe0
              {
                OFFSET 9.18784 6.94841 0
                CHANNELS 6 Xposition Yposition Zposition Zrotation Xrotation Yrotation
                JOINT Bip01_R_Toe0Nub
                {
                  OFFSET 1.01907 0 0
                  CHANNELS 6 Xposition Yposition Zposition Zrotation Xrotation Yrotation
                  End Site
                  {
                    OFFSET 0 0 0
                  }
                }
              }
            }
          }
        }
      }
      JOINT Bip01_L_Thigh
      {
        OFFSET -22.1873 0.67701 17.1024
        CHANNELS 6 Xposition Yposition Zposition Zrotation Xrotation Yrotation
        JOINT Bip01_L_Calf
        {
          OFFSET 34.2647 0 0
          CHANNELS 6 Xposition Yposition Zposition Zrotation Xrotation Yrotation
          JOINT Bip01_L_HorseLink
          {
            OFFSET 20.4429 0 0
            CHANNELS 6 Xposition Yposition Zposition Zrotation Xrotation Yrotation
            JOINT Bip01_L_Foot
            {
              OFFSET 16.5673 0 0
              CHANNELS 6 Xposition Yposition Zposition Zrotation Xrotation Yrotation
              JOINT Bip01_L_Toe0
              {
                OFFSET 9.18784 6.9484 1.14441e-005
                CHANNELS 6 Xposition Yposition Zposition Zrotation Xrotation Yrotation
                JOINT Bip01_L_Toe0Nub
                {
                  OFFSET 1.01907 0 0
                  CHANNELS 6 Xposition Yposition Zposition Zrotation Xrotation Yrotation
                  End Site
                  {
                    OFFSET 0 0 0
                  }
                }
              }
            }
          }
        }
      }
      JOINT Bip01_Spine1
      {
        OFFSET 39.3372 -0.0249863 0
        CHANNELS 6 Xposition Yposition Zposition Zrotation Xrotation Yrotation
        JOINT Bip01_Neck
        {
          OFFSET 34.2837 -15.5934 -4.318e-005
          CHANNELS 6 Xposition Yposition Zposition Zrotation Xrotation Yrotation
          JOINT Bip01_R_Clavicle
          {
            OFFSET -17.9452 -11.3131 -6.19287
            CHANNELS 6 Xposition Yposition Zposition Zrotation Xrotation Yrotation
            JOINT Bip01_R_UpperArm
            {
              OFFSET 17.4439 1.52588e-005 -2.28882e-005
              CHANNELS 6 Xposition Yposition Zposition Zrotation Xrotation Yrotation
              JOINT Bip01_R_Forearm
              {
                OFFSET 30.6251 1.14441e-005 0
                CHANNELS 6 Xposition Yposition Zposition Zrotation Xrotation Yrotation
                JOINT Bip01_R_Hand
                {
                  OFFSET 31.2039 0 0
                  CHANNELS 6 Xposition Yposition Zposition Zrotation Xrotation Yrotation
                  JOINT Bip01_R_Finger0
                  {
                    OFFSET 22.1039 0.255862 -0.37902
                    CHANNELS 6 Xposition Yposition Zposition Zrotation Xrotation Yrotation
                    JOINT Bip01_R_Finger0Nub
                    {
                      OFFSET 12.0552 0 0
                      CHANNELS 6 Xposition Yposition Zposition Zrotation Xrotation Yrotation
                      End Site
                      {
                        OFFSET 0 0 0
                      }
                    }
                  }
                }
              }
            }
          }
          JOINT Bip01_L_Clavicle
          {
            OFFSET -17.9452 -11.3132 6.19281
            CHANNELS 6 Xposition Yposition Zposition Zrotation Xrotation Yrotation
            JOINT Bip01_L_UpperArm
            {
              OFFSET 17.444 0 1.14441e-005
              CHANNELS 6 Xposition Yposition Zposition Zrotation Xrotation Yrotation
              JOINT Bip01_L_Forearm
              {
                OFFSET 30.6251 0 0
                CHANNELS 6 Xposition Yposition Zposition Zrotation Xrotation Yrotation
                JOINT Bip01_L_Hand
                {
                  OFFSET 31.204 0 0
                  CHANNELS 6 Xposition Yposition Zposition Zrotation Xrotation Yrotation
                  JOINT Bip01_L_Finger0
                  {
                    OFFSET 22.1039 0.255856 0.379024
                    CHANNELS 6 Xposition Yposition Zposition Zrotation Xrotation Yrotation
                    JOINT Bip01_L_Finger0Nub
                    {
                      OFFSET 12.0552 0 0
                      CHANNELS 6 Xposition Yposition Zposition Zrotation Xrotation Yrotation
                      End Site
                      {
                        OFFSET 0 0 0
                      }
                    }
                  }
                }
              }
            }
          }
          JOINT Bip01_Neck1
          {
            OFFSET 14.9359 -0.0106278 0
            CHANNELS 6 Xposition Yposition Zposition Zrotation Xrotation Yrotation
            JOINT Bip01_Head
            {
              OFFSET 14.3578 0.505501 0
              CHANNELS 6 Xposition Yposition Zposition Zrotation Xrotation Yrotation
              JOINT BN_Ear_L_01
              {
                OFFSET 3.76994 -2.35629 12.3444
                CHANNELS 6 Xposition Yposition Zposition Zrotation Xrotation Yrotation
                End Site
                {
                  OFFSET 0 0 0
                }
              }
              JOINT BN_Ear_R_01
              {
                OFFSET 3.76995 -2.35622 -12.3442
                CHANNELS 6 Xposition Yposition Zposition Zrotation Xrotation Yrotation
                End Site
                {
                  OFFSET 0 0 0
                }
              }
              JOINT BN_Mouth_01
              {
                OFFSET 11.8395 10.8645 1.27e-005
                CHANNELS 6 Xposition Yposition Zposition Zrotation Xrotation Yrotation
                JOINT BN_Tongue_01
                {
                  OFFSET 9.73752 3.21674 1.016e-005
                  CHANNELS 6 Xposition Yposition Zposition Zrotation Xrotation Yrotation
                  JOINT BN_Tongue_02
                  {
                    OFFSET 9.04304 0.053505 0
                    CHANNELS 6 Xposition Yposition Zposition Zrotation Xrotation Yrotation
                    End Site
                    {
                      OFFSET 0 0 0
                    }
                  }
                }
                JOINT BN_Beard_01
                {
                  OFFSET 6.93466 -0.751793 0
                  CHANNELS 6 Xposition Yposition Zposition Zrotation Xrotation Yrotation
                  JOINT BN_Beard_02
                  {
                    OFFSET 13.0965 1.52588e-005 0
                    CHANNELS 6 Xposition Yposition Zposition Zrotation Xrotation Yrotation
                    End Site
                    {
                      OFFSET 0 0 0
                    }
                  }
                }
              }
              JOINT Bip01_HeadNub
              {
                OFFSET 25.6158 0 0
                CHANNELS 6 Xposition Yposition Zposition Zrotation Xrotation Yrotation
                End Site
                {
                  OFFSET 0 0 0
                }
              }
            }
          }
        }
      }
    }
  }
}
MOTION
Frames:	4
Frame Time:	0.0333333
16.2151 62.2617 -4.75009 55.0009 -85.7554 157.15 -3.8147e-006 4.76837e-007 -8.88178e-016 -94.4552 -11.8348 -94.2513 -18.6385 -9.59101 -1.77636e-015 6.61193 -0.104247 -179.751 20.9743 -7.62939e-006 -0.000607491 12.3271 -2.17178 7.16596 20.3015 7.6294e-006 -6.81122e-014 10.6506 -10.8344 -12.1292 21.6394 -7.6294e-006 1.90735e-006 38.1757 3.90042 -11.4303 21.5166 -5.19143 -1.64767 -15.834 -5.05088 -4.08909 -23.1639 0.488054 -13.8549 -95.5414 -6.61776 -179.533 34.2647 -3.8147e-006 -1.90735e-006 -79.157 1.32718e-006 9.79059e-006 20.4429 -1.77636e-014 1.90735e-006 98.5261 1.67994e-007 3.20438e-007 16.5673 1.52588e-005 3.8147e-006 -18.0791 6.35701 4.5523 9.18785 6.94841 -3.81221e-006 89.9602 1.22806e-009 -7.59628e-007 1.01906 2.38418e-007 -3.8147e-006 -4.03645e-008 1.78248e-008 -4.26887e-007 -20.7336 -2.52458 20.1302 -77.2961 -0.647311 -169.425 34.2647 -9.05991e-006 1.77636e-014 -56.2926 -9.85374e-006 -1.4388e-005 20.4429 -1.90735e-006 -3.8147e-006 56.9918 5.03907e-006 -8.57918e-006 16.5673 -3.8147e-006 -3.8147e-006 7.50078 -12.982 -9.22851 9.18784 6.94841 -3.83853e-006 103.802 0.0497474 -0.6389 1.01907 1.1921e-007 3.8147e-006 -179.96 -5.8975e-005 1.7032e-005 39.3302 -0.0234549 -0.00094986 -15.6534 0.888191 -5.83948 34.2791 -15.5918 5.62703e-005 -23.1302 -26.6349 2.90671 -10.4817 -13.3301 -14.1682 -123.723 -68.4316 106.544 17.4439 3.8147e-006 7.62939e-006 45.9183 32.4645 -55.4192 30.6251 -3.8147e-006 1.90735e-006 -75.0781 7.44884e-007 1.1014e-005 31.204 -1.90735e-006 -3.81469e-006 165.662 63.2432 -174.032 22.1039 0.255839 -0.379034 -4.70638 0.214401 -24.8798 12.0552 -5.72207e-006 4.17232e-007 179.96 1.81272e-005 -1.10012e-006 -11.043 -18.8831 -3.11138 -164.664 23.6632 -74.5628 17.4439 3.55272e-014 -3.8147e-006 27.265 -35.6785 56.0122 30.6251 -4.76838e-007 -7.10542e-015 -92.7749 -4.48926e-007 1.07472e-005 31.204 3.8147e-006 7.10542e-015 -23.9817 -88.3976 -29.9841 22.1039 0.255854 0.379028 -11.639 -0.263576 1.17188 12.0552 1.90735e-006 3.81469e-006 -1.24853e-006 1.00338e-005 -1.45916e-006 14.9354 -0.0106659 0.000167369 -10.7982 3.61314 -0.832271 14.3577 0.505501 3.10382e-008 -19.4479 1.42016 -1.247 3.7699 -2.35627 12.3444 151.388 -27.3288 -46.1548 3.76994 -2.35619 -12.3442 16.9777 -12.1635 127.301 11.8396 10.8645 1.42152e-006 -177.002 -3.76322 178.789 9.73754 3.21675 3.78398e-007 -2.85749 -3.57296e-008 1.0345e-005 5.17483 0.535256 -0.1598 -9.7303 2.35624e-006 2.3311e-006 6.93467 -0.751793 -8.84359e-008 -57.2386 19.2435 5.12006 13.0966 2.84217e-014 2.84217e-014 32.3885 -9.00108 14.4982 25.6158 7.6294e-006 -2.38418e-007 -6.59263e-008 1.08709e-006 -6.07726e-008 
17.8163 60.4289 -4.18438 58.4875 -86.2513 161.115 -3.8147e-006 4.76837e-007 -2.66454e-015 -94.3015 -10.375 -93.921 -18.6385 -9.59101 2.22045e-016 8.48402 -0.111697 -178.151 20.9743 -7.62939e-006 -0.000607491 4.42719 -2.34236 8.65987 20.3015 7.62939e-006 -5.06262e-014 -1.27436 -9.76978 -4.25978 21.6394 -7.6294e-006 1.90735e-006 37.0644 9.38797 -9.61806 21.6526 -4.64162 -1.53003 -10.4271 -4.85098 -5.27054 -23.4621 1.9599 -13.3627 -100.469 -8.08746 -179.383 34.2647 -3.8147e-006 -1.90735e-006 -85.4402 4.39929e-007 9.90715e-006 20.4429 -1.06581e-014 1.90735e-006 99.4765 1.81096e-007 5.12113e-007 16.5673 1.52588e-005 3.8147e-006 -13.0668 5.78182 4.05965 9.18785 6.94841 -3.81221e-006 89.9481 1.39687e-009 -7.59597e-007 1.01906 2.38418e-007 -3.8147e-006 -4.03645e-008 1.78248e-008 -4.26887e-007 -20.3304 -0.933782 20.5753 -80.9433 -2.41093 -168.619 34.2647 -9.05991e-006 1.06581e-014 -60.6337 -8.73779e-006 -1.50928e-005 20.4429 -1.90735e-006 -3.8147e-006 60.2145 1.3245e-005 -3.87401e-006 16.5673 -3.8147e-006 -3.8147e-006 6.40736 -13.4434 -10.4697 9.18784 6.94841 -3.8391e-006 106.581 0.0292703 -0.517628 1.01907 1.1921e-007 3.8147e-006 -179.96 -5.89748e-005 1.70319e-005 39.3314 -0.0238089 -0.00094986 -11.9794 -0.25044 -6.41133 34.2794 -15.5918 5.62602e-005 -20.2039 -24.845 7.57194 -10.2804 -13.209 -14.4264 -125.707 -64.3888 108.862 17.4439 3.8147e-006 7.62939e-006 48.2947 26.0667 -56.087 30.6251 -3.8147e-006 1.90735e-006 -82.6931 -1.69339e-006 1.21283e-005 31.204 -1.90735e-006 -3.81469e-006 167.025 60.8158 174.795 22.1039 0.255839 -0.379034 -5.19754 -0.427458 -21.199 12.0552 -5.72207e-006 4.17232e-007 179.96 1.81271e-005 -1.10331e-006 -11.7617 -18.4136 -3.28561 -168.48 24.9543 -71.6629 17.4439 3.55272e-014 -3.8147e-006 31.3488 -32.2426 57.7334 30.6251 -4.76838e-007 0 -107.058 -2.94183e-006 1.03232e-005 31.204 3.8147e-006 2.13163e-014 -10.4489 -86.3803 -14.2786 22.1039 0.255854 0.379028 -11.6358 -0.305858 -0.604854 12.0552 1.90735e-006 3.81469e-006 -1.24853e-006 1.00338e-005 -1.45916e-006 14.9354 -0.0106659 0.000167369 -10.1613 3.0038 -0.591658 14.3577 0.505501 2.71981e-008 -24.8419 2.91127 -3.51745 3.7699 -2.35627 12.3444 141.725 -42.3282 -65.4362 3.76994 -2.35619 -12.3442 16.8231 -11.555 127.548 11.8396 10.8645 1.63582e-006 -177.002 -3.76325 178.789 9.73754 3.21675 4.4466e-007 -2.85749 -1.25773e-007 1.04039e-005 5.17483 0.535256 -0.1598 -9.7303 2.29503e-006 1.9375e-006 6.93467 -0.751793 -1.03922e-007 -54.0512 19.1266 5.05472 13.0966 1.42109e-014 -7.10543e-015 37.8497 -8.74473 15.0691 25.6158 7.6294e-006 -2.38418e-007 -6.59263e-008 1.08709e-006 -6.07726e-008 
18.9517 58.7424 -3.6184 62.3482 -86.7882 165.311 -3.8147e-006 4.76837e-007 0 -94.0876 -8.53264 -93.5752 -18.6385 -9.59101 -2.66454e-015 10.1773 -0.118189 -176.639 20.9743 -7.62939e-006 -0.000607491 -3.9589 -2.52413 9.79879 20.3015 7.62939e-006 -1.01252e-013 -14.5877 -8.40966 4.07756 21.6394 -7.6294e-006 1.90735e-006 35.7774 14.7317 -7.69995 21.8007 -3.94127 -1.4061 -6.25282 -4.69069 -6.16541 -23.6395 2.82178 -13.0533 -103.828 -9.06636 -179.246 34.2647 -3.8147e-006 -1.90735e-006 -91.0695 -4.00214e-007 9.91138e-006 20.4429 7.10543e-015 1.90735e-006 100.289 1.71291e-007 6.43687e-007 16.5673 1.52588e-005 3.8147e-006 -8.76987 5.14133 3.63554 9.18785 6.94841 -3.81221e-006 89.9362 1.5593e-009 -7.5961e-007 1.01906 2.38418e-007 -3.8147e-006 -4.03645e-008 1.78248e-008 -4.26887e-007 -19.977 0.0232116 20.8396 -83.0584 -3.6926 -167.993 34.2647 -9.05991e-006 2.13163e-014 -64.7982 -7.61969e-006 -1.56875e-005 20.4429 -1.90735e-006 -3.8147e-006 63.3091 1.3018e-005 -4.58468e-006 16.5673 -3.8147e-006 -3.8147e-006 5.30267 -13.8986 -11.5967 9.18784 6.94841 -3.83959e-006 109.084 0.0124906 -0.37322 1.01907 1.1921e-007 3.8147e-006 -179.96 -5.89746e-005 1.70317e-005 39.3325 -0.0241534 -0.00094986 -9.48661 -0.819923 -6.76051 34.2798 -15.5918 5.62513e-005 -17.7857 -23.204 10.4851 -10.3535 -13.0918 -14.4812 -128.478 -61.722 109.93 17.4439 3.8147e-006 7.62939e-006 48.5251 20.2102 -55.5181 30.6251 -3.8147e-006 1.90735e-006 -86.5846 -2.70591e-006 1.25066e-005 31.204 -1.90735e-006 -3.81469e-006 168.979 59.5699 163.445 22.1039 0.255839 -0.379034 -5.63785 -1.08616 -17.5947 12.0552 -5.72207e-006 4.17232e-007 179.96 1.81271e-005 -1.10488e-006 -12.4255 -17.9725 -3.28787 -171.419 25.7357 -70.115 17.4439 2.13163e-014 -3.8147e-006 34.8281 -29.5838 59.4188 30.6251 -4.76838e-007 1.42108e-014 -115.265 -4.6874e-006 9.61231e-006 31.204 3.8147e-006 -7.10542e-015 -2.08623 -85.5633 -1.81153 22.1039 0.255854 0.379028 -11.6389 -0.345096 -2.09877 12.0552 1.90735e-006 3.81469e-006 -1.24853e-006 1.00338e-005 -1.45916e-006 14.9354 -0.0106659 0.000167369 -9.86637 2.44583 -0.477 14.3577 0.505501 2.43318e-008 -27.3416 4.62717 -5.53759 3.7699 -2.35627 12.3444 127.941 -45.8828 -86.0054 3.76994 -2.35619 -12.3442 16.3855 -9.88165 128.185 11.8396 10.8645 1.78985e-006 -177.002 -3.76328 178.789 9.73754 3.21675 4.90894e-007 -2.85749 -1.64828e-007 1.0445e-005 5.17483 0.535256 -0.1598 -9.7303 2.21607e-006 2.30358e-006 6.93467 -0.751793 -1.14727e-007 -55.9481 19.2189 6.68425 13.0966 0 0 42.6862 -8.11079 15.5317 25.6158 7.6294e-006 -2.38418e-007 -6.59263e-008 1.08709e-006 -6.07726e-008 
19.7023 57.2167 -3.06774 67.0331 -87.3472 170.152 -3.8147e-006 4.76837e-007 0 -93.8331 -6.39107 -93.2194 -18.6385 -9.59101 4.44089e-016 11.7303 -0.123998 -175.196 20.9743 -7.62939e-006 -0.000607491 -12.1015 -2.6906 10.6256 20.3015 7.6294e-006 -1.86518e-013 -27.7389 -7.01745 11.7526 21.6394 -7.6294e-006 1.90735e-006 33.8453 19.4498 -5.83646 21.9417 -3.12223 -1.27565 -2.85401 -4.53976 -6.8845 -23.7833 3.27125 -12.8579 -106.049 -9.72345 -179.094 34.2647 -3.8147e-006 -1.90735e-006 -96.1013 -1.18826e-006 9.83495e-006 20.4429 2.13163e-014 1.90735e-006 101.083 1.49301e-007 7.20749e-007 16.5673 1.52588e-005 3.8147e-006 -5.19211 4.47603 3.2654 9.18785 6.94841 -3.81221e-006 89.9242 1.73833e-009 -7.59607e-007 1.01906 2.38418e-007 -3.8147e-006 -4.03645e-008 1.78248e-008 -4.26887e-007 -19.6949 0.563843 20.9937 -84.0426 -4.63561 -167.487 34.2647 -9.05991e-006 2.13163e-014 -68.6633 -6.54551e-006 -1.61656e-005 20.4429 -1.90735e-006 -3.8147e-006 66.2747 3.59356e-006 -9.28366e-006 16.5673 -3.8147e-006 -3.8147e-006 4.20232 -14.3494 -12.6133 9.18784 6.94841 -3.83999e-006 111.29 0.00369481 -0.234698 1.01907 1.1921e-007 3.8147e-006 -179.96 -5.89744e-005 1.70316e-005 39.3336 -0.0245014 -0.00094986 -7.65886 -0.987719 -7.00699 34.2801 -15.5918 5.62452e-005 -15.1812 -21.3233 11.5157 -10.9631 -12.9317 -14.1738 -133.572 -60.4406 108.69 17.4439 3.8147e-006 7.62939e-006 47.487 15.0776 -54.4761 30.6251 -3.8147e-006 1.90735e-006 -88.3804 -2.42363e-006 1.24498e-005 31.204 -1.90735e-006 -3.81469e-006 171.891 59.0193 152.305 22.1039 0.255839 -0.379034 -5.99427 -1.73682 -14.139 12.0552 -5.72207e-006 4.17232e-007 179.96 1.8127e-005 -1.10907e-006 -13.2665 -17.4357 -2.86834 -173.858 26.5344 -70.5445 17.4439 1.42109e-014 -3.8147e-006 38.0124 -27.5218 60.8173 30.6251 -4.76838e-007 7.10542e-015 -119.762 -5.01964e-006 9.42543e-006 31.204 3.8147e-006 7.10542e-015 6.43295 -85.7616 11.4951 22.1039 0.255854 0.379028 -11.6252 -0.377403 -3.30452 12.0552 1.90735e-006 3.81469e-006 -1.24853e-006 1.00338e-005 -1.45916e-006 14.9354 -0.0106659 0.00016737 -9.63714 1.82691 -0.646261 14.3577 0.505501 2.28986e-008 -26.6523 5.81387 -7.24783 3.7699 -2.35627 12.3444 122.186 -45.1821 -94.2675 3.76994 -2.35619 -12.3442 15.6283 -7.21119 129.058 11.8396 10.8645 1.91683e-006 -177.002 -3.76332 178.789 9.73754 3.21675 5.22844e-007 -2.85749 -9.2273e-008 1.04733e-005 5.17483 0.535256 -0.1598 -9.7303 2.41514e-006 2.8327e-006 6.93467 -0.751793 -1.22194e-007 -59.5615 19.4034 9.27558 13.0966 5.68435e-014 -2.13163e-014 47.0181 -7.15963 15.9061 25.6158 7.6294e-006 -2.38418e-007 -6.59263e-008 1.08709e-006 -6.07726e-008 
